<svg id="Layer_1" enable-background="new 0 0 512.002 512.002" height="512" viewBox="0 0 512.002 512.002" width="512" xmlns="http://www.w3.org/2000/svg"><g><path d="m511.9 312.259c-2.482-56.597-50.543-100.634-107.145-98.143-7.056.309-13.917 1.328-20.516 2.983l38.876 93.924c3.169 7.655-.468 16.428-8.123 19.596-1.875.776-3.819 1.144-5.73 1.144-5.888 0-11.474-3.489-13.865-9.267l-38.866-93.899c8.501-5.104 17.811-9.018 27.708-11.499l-38.64-93.353h63.672c4.919 0 8.921 4.002 8.921 8.921s-4.002 8.921-8.921 8.921h-7.293c-8.284 0-15 6.716-15 15s6.716 15 15 15h7.293c21.461 0 38.921-17.46 38.921-38.921s-17.46-38.921-38.921-38.921h-86.115c-5.009 0-9.688 2.5-12.471 6.665-2.783 4.164-3.305 9.443-1.389 14.072l16.677 40.29h-129.408l-13.219-32.275h41.119c8.284 0 15-6.716 15-15s-6.716-15-15-15h-63.472c-4.999 0-9.67 2.49-12.455 6.642-2.786 4.151-3.32 9.417-1.426 14.043l22.635 55.268-29.87 52.517c-12.878-5.008-26.971-7.492-41.639-6.85-27.413 1.197-52.718 12.979-71.253 33.176-18.542 20.205-28.09 46.41-26.885 73.789 2.42 54.985 48 98.087 102.603 98.087 1.507 0 3.026-.033 4.546-.099 27.413-1.197 52.718-12.979 71.253-33.176 12.36-13.468 20.718-29.604 24.563-46.975l37.616 2.732 17.749 43.337c2.308 5.635 7.792 9.315 13.881 9.315h20.071c8.284 0 15-6.716 15-15s-6.716-15-15-15h-10.005l-17.548-42.846 80.241-120.543 11.46 27.687c-31.297 18.789-51.627 53.704-49.918 92.663 1.202 27.417 13.009 52.725 33.246 71.262 19.101 17.496 43.55 26.983 69.289 26.982 1.531 0 3.069-.033 4.609-.101 27.417-1.202 52.725-13.009 71.262-33.246 18.539-20.24 28.085-46.485 26.882-73.902zm-306.7-3.267c-2.213-29.84-17.161-55.942-39.247-73.192l-38.421 67.552 77.668 5.64c.076 1.033.143 2.069.188 3.111.402 9.128-.398 18.125-2.322 26.813l-101.407-7.364c-5.135-.373-9.72-3.353-12.145-7.894-2.426-4.541-2.354-10.008.192-14.483l50.171-88.21c9.429 3.667 18.205 8.687 26.075 14.834l18.242-32.074 43.789 106.92zm45.903-21.055-42.251-103.165h110.925z"/></g></svg>